<?xml version="1.0" encoding="UTF-8"?>
<!DOCTYPE svg PUBLIC "-//W3C//DTD SVG 1.1//EN" "http://www.w3.org/Graphics/SVG/1.1/DTD/svg11.dtd">
<svg xmlns="http://www.w3.org/2000/svg" version="1.1" width="500px" height="500px" style="shape-rendering:geometricPrecision; text-rendering:geometricPrecision; image-rendering:optimizeQuality; fill-rule:evenodd; clip-rule:evenodd" xmlns:xlink="http://www.w3.org/1999/xlink">
<g><path style="opacity:1" fill="#fefefe" d="M -0.5,-0.5 C 166.167,-0.5 332.833,-0.5 499.5,-0.5C 499.5,166.167 499.5,332.833 499.5,499.5C 332.833,499.5 166.167,499.5 -0.5,499.5C -0.5,332.833 -0.5,166.167 -0.5,-0.5 Z"/></g>
<g><path style="opacity:1" fill="#070507" d="M 68.5,204.5 C 90.5025,204.333 112.503,204.5 134.5,205C 135.191,206.067 135.691,207.234 136,208.5C 137.41,207.213 138.91,206.046 140.5,205C 151.5,204.333 162.5,204.333 173.5,205C 174.191,206.067 174.691,207.234 175,208.5C 176.214,206.951 177.714,205.785 179.5,205C 206.167,204.333 232.833,204.333 259.5,205C 260.191,206.067 260.691,207.234 261,208.5C 262.214,206.951 263.714,205.785 265.5,205C 273.5,204.333 281.5,204.333 289.5,205C 291.421,205.36 293.088,206.194 294.5,207.5C 295.5,207.167 296.167,206.5 296.5,205.5C 306.167,205.167 315.833,204.833 325.5,204.5C 360.746,204.278 395.913,204.612 431,205.5C 431.824,221.741 431.658,237.907 430.5,254C 411.748,254.292 393.081,254.292 374.5,254C 373.299,253.097 372.465,251.931 372,250.5C 370.2,252.317 368.034,253.484 365.5,254C 358.167,254.667 350.833,254.667 343.5,254C 341.413,253.208 339.579,252.041 338,250.5C 337.535,251.931 336.701,253.097 335.5,254C 332.5,254.167 329.5,254.333 326.5,254.5C 316.912,254.249 307.245,254.083 297.5,254C 296.299,253.097 295.465,251.931 295,250.5C 293.2,252.317 291.034,253.484 288.5,254C 281.167,254.667 273.833,254.667 266.5,254C 264.413,253.208 262.579,252.041 261,250.5C 260.535,251.931 259.701,253.097 258.5,254C 232.5,254.667 206.5,254.667 180.5,254C 178.413,253.208 176.579,252.041 175,250.5C 174.682,252.061 173.849,253.228 172.5,254C 162.5,254.667 152.5,254.667 142.5,254C 139.898,253.117 137.731,251.617 136,249.5C 135.727,251.101 135.227,252.601 134.5,254C 128.5,254.667 122.5,254.667 116.5,254C 116,253.5 115.5,253 115,252.5C 114.667,248.833 114.333,245.167 114,241.5C 105.585,242.483 97.0851,242.817 88.5,242.5C 88.8226,246.226 88.4892,249.893 87.5,253.5C 80.9698,254.818 74.4698,254.818 68,253.5C 67.1828,237.093 67.3494,220.759 68.5,204.5 Z"/></g>
<g><path style="opacity:1" fill="#5e3266" d="M 113.5,219.5 C 113.5,215.833 113.5,212.167 113.5,208.5C 99.5,208.5 85.5,208.5 71.5,208.5C 71.5,222.5 71.5,236.5 71.5,250.5C 70.5041,236.343 70.1707,222.01 70.5,207.5C 85.1667,207.5 99.8333,207.5 114.5,207.5C 114.817,211.702 114.483,215.702 113.5,219.5 Z"/></g>
<g><path style="opacity:1" fill="#673770" d="M 184.5,208.5 C 192.65,207.507 200.983,207.174 209.5,207.5C 209.5,211.833 209.5,216.167 209.5,220.5C 203.167,220.5 196.833,220.5 190.5,220.5C 196.31,219.51 202.31,219.177 208.5,219.5C 208.5,215.833 208.5,212.167 208.5,208.5C 200.5,208.5 192.5,208.5 184.5,208.5 Z"/></g>
<g><path style="opacity:1" fill="#e87cfd" d="M 113.5,219.5 C 104.494,219.334 95.4938,219.5 86.5,220C 83.8333,222 83.8333,224 86.5,226C 94.8267,226.5 103.16,226.666 111.5,226.5C 111.5,230.5 111.5,234.5 111.5,238.5C 102.827,238.334 94.1603,238.5 85.5,239C 84.5399,242.73 84.2065,246.563 84.5,250.5C 80.1667,250.5 75.8333,250.5 71.5,250.5C 71.5,236.5 71.5,222.5 71.5,208.5C 85.5,208.5 99.5,208.5 113.5,208.5C 113.5,212.167 113.5,215.833 113.5,219.5 Z"/></g>
<g><path style="opacity:1" fill="#e97dff" d="M 118.5,208.5 C 122.833,208.5 127.167,208.5 131.5,208.5C 131.5,222.5 131.5,236.5 131.5,250.5C 127.167,250.5 122.833,250.5 118.5,250.5C 118.5,236.5 118.5,222.5 118.5,208.5 Z"/></g>
<g><path style="opacity:1" fill="#763f80" d="M 118.5,208.5 C 122.97,207.514 127.637,207.181 132.5,207.5C 132.829,222.01 132.496,236.343 131.5,250.5C 131.5,236.5 131.5,222.5 131.5,208.5C 127.167,208.5 122.833,208.5 118.5,208.5 Z"/></g>
<g><path style="opacity:1" fill="#e379f7" d="M 144.5,207.5 C 153.167,207.5 161.833,207.5 170.5,207.5C 170.5,211.5 170.5,215.5 170.5,219.5C 163.91,219.189 157.41,219.522 151,220.5C 150.333,226.167 150.333,231.833 151,237.5C 152.388,238.554 153.888,238.72 155.5,238C 156.46,234.27 156.793,230.437 156.5,226.5C 161.167,226.5 165.833,226.5 170.5,226.5C 170.5,234.5 170.5,242.5 170.5,250.5C 161.161,250.666 151.827,250.5 142.5,250C 139.337,248.52 137.504,246.02 137,242.5C 136.077,232.426 136.41,222.426 138,212.5C 139.805,210.174 141.972,208.508 144.5,207.5 Z"/></g>
<g><path style="opacity:1" fill="#e67bfb" d="M 184.5,208.5 C 192.5,208.5 200.5,208.5 208.5,208.5C 208.5,212.167 208.5,215.833 208.5,219.5C 202.31,219.177 196.31,219.51 190.5,220.5C 189.883,220.611 189.383,220.944 189,221.5C 188.333,226.833 188.333,232.167 189,237.5C 191,238.833 193,238.833 195,237.5C 195.499,233.848 195.665,230.182 195.5,226.5C 200.167,226.5 204.833,226.5 209.5,226.5C 209.5,234.5 209.5,242.5 209.5,250.5C 200.161,250.666 190.827,250.5 181.5,250C 179.714,249.215 178.214,248.049 177,246.5C 175.38,235.598 175.046,224.598 176,213.5C 177.674,209.911 180.507,208.245 184.5,208.5 Z"/></g>
<g><path style="opacity:1" fill="#9c53a9" d="M 256.5,208.5 C 242.5,208.5 228.5,208.5 214.5,208.5C 214.5,222.5 214.5,236.5 214.5,250.5C 213.504,236.343 213.171,222.01 213.5,207.5C 228.01,207.171 242.343,207.504 256.5,208.5 Z"/></g>
<g><path style="opacity:1" fill="#e57af9" d="M 256.5,208.5 C 256.5,211.833 256.5,215.167 256.5,218.5C 246.833,218.5 237.167,218.5 227.5,218.5C 227.261,220.467 227.594,222.301 228.5,224C 236.827,224.5 245.16,224.666 253.5,224.5C 253.5,227.5 253.5,230.5 253.5,233.5C 244.983,233.174 236.65,233.507 228.5,234.5C 227.193,236.223 227.193,238.057 228.5,240C 237.827,240.5 247.161,240.666 256.5,240.5C 256.5,243.833 256.5,247.167 256.5,250.5C 242.5,250.5 228.5,250.5 214.5,250.5C 214.5,236.5 214.5,222.5 214.5,208.5C 228.5,208.5 242.5,208.5 256.5,208.5 Z"/></g>
<g><path style="opacity:1" fill="#e379f8" d="M 270.5,207.5 C 275.844,207.334 281.177,207.501 286.5,208C 290.02,208.504 292.52,210.337 294,213.5C 296,224.167 296,234.833 294,245.5C 292.457,247.378 290.624,248.878 288.5,250C 281.5,250.667 274.5,250.667 267.5,250C 265,248.833 263.167,247 262,244.5C 261.333,234.167 261.333,223.833 262,213.5C 263.943,210.122 266.776,208.122 270.5,207.5 Z"/></g>
<g><path style="opacity:1" fill="#aa5ab8" d="M 313.5,220.5 C 312.517,216.702 312.183,212.702 312.5,208.5C 308.5,208.5 304.5,208.5 300.5,208.5C 300.5,222.5 300.5,236.5 300.5,250.5C 299.504,236.343 299.171,222.01 299.5,207.5C 304.167,207.5 308.833,207.5 313.5,207.5C 313.5,211.833 313.5,216.167 313.5,220.5 Z"/></g>
<g><path style="opacity:1" fill="#e67bfb" d="M 313.5,220.5 C 315.5,223.167 317.5,223.167 319.5,220.5C 320.483,216.702 320.817,212.702 320.5,208.5C 324.833,208.5 329.167,208.5 333.5,208.5C 332.698,215.415 331.365,222.248 329.5,229C 331.87,235.979 333.203,243.146 333.5,250.5C 328.833,250.5 324.167,250.5 319.5,250.5C 319.666,245.821 319.499,241.155 319,236.5C 317.333,235.167 315.667,235.167 314,236.5C 313.501,241.155 313.334,245.821 313.5,250.5C 309.167,250.5 304.833,250.5 300.5,250.5C 300.5,236.5 300.5,222.5 300.5,208.5C 304.5,208.5 308.5,208.5 312.5,208.5C 312.183,212.702 312.517,216.702 313.5,220.5 Z"/></g>
<g><path style="opacity:1" fill="#753e7f" d="M 333.5,208.5 C 329.167,208.5 324.833,208.5 320.5,208.5C 320.817,212.702 320.483,216.702 319.5,220.5C 319.5,216.167 319.5,211.833 319.5,207.5C 324.363,207.181 329.03,207.514 333.5,208.5 Z"/></g>
<g><path style="opacity:1" fill="#e87cfd" d="M 352.5,237.5 C 354.223,238.807 356.057,238.807 358,237.5C 358.5,227.839 358.666,218.172 358.5,208.5C 362.833,208.5 367.167,208.5 371.5,208.5C 371.5,219.833 371.5,231.167 371.5,242.5C 370.857,245.988 368.857,248.488 365.5,250C 362,250.167 358.5,250.333 355,250.5C 350.719,250.601 346.552,250.101 342.5,249C 339.976,247.117 338.642,244.617 338.5,241.5C 338.5,230.5 338.5,219.5 338.5,208.5C 342.833,208.5 347.167,208.5 351.5,208.5C 351.173,218.348 351.506,228.014 352.5,237.5 Z"/></g>
<g><path style="opacity:1" fill="#48264e" d="M 352.5,237.5 C 351.506,228.014 351.173,218.348 351.5,208.5C 347.167,208.5 342.833,208.5 338.5,208.5C 338.5,219.5 338.5,230.5 338.5,241.5C 337.505,230.346 337.172,219.012 337.5,207.5C 342.5,207.5 347.5,207.5 352.5,207.5C 352.5,217.5 352.5,227.5 352.5,237.5 Z"/></g>
<g><path style="opacity:1" fill="#753e7e" d="M 358.5,208.5 C 362.97,207.514 367.637,207.181 372.5,207.5C 372.828,219.345 372.495,231.012 371.5,242.5C 371.5,231.167 371.5,219.833 371.5,208.5C 367.167,208.5 362.833,208.5 358.5,208.5 Z"/></g>
<g><path style="opacity:1" fill="#9e54ac" d="M 407.5,208.5 C 397.5,208.5 387.5,208.5 377.5,208.5C 377.5,222.5 377.5,236.5 377.5,250.5C 376.504,236.343 376.171,222.01 376.5,207.5C 387.014,207.172 397.347,207.506 407.5,208.5 Z"/></g>
<g><path style="opacity:1" fill="#e77bfb" d="M 407.5,208.5 C 407.334,217.506 407.5,226.506 408,235.5C 410,238.167 412,238.167 414,235.5C 414.5,226.506 414.666,217.506 414.5,208.5C 418.833,208.5 423.167,208.5 427.5,208.5C 427.5,222.5 427.5,236.5 427.5,250.5C 417.167,250.5 406.833,250.5 396.5,250.5C 396.666,241.161 396.5,231.827 396,222.5C 394.333,221.167 392.667,221.167 391,222.5C 390.5,231.827 390.334,241.161 390.5,250.5C 386.167,250.5 381.833,250.5 377.5,250.5C 377.5,236.5 377.5,222.5 377.5,208.5C 387.5,208.5 397.5,208.5 407.5,208.5 Z"/></g>
<g><path style="opacity:1" fill="#763f80" d="M 414.5,208.5 C 418.97,207.514 423.637,207.181 428.5,207.5C 428.829,222.01 428.496,236.343 427.5,250.5C 427.5,236.5 427.5,222.5 427.5,208.5C 423.167,208.5 418.833,208.5 414.5,208.5 Z"/></g>
<g><path style="opacity:1" fill="#0f0910" d="M 276.5,217.5 C 278.144,217.286 279.644,217.62 281,218.5C 281.667,225.5 281.667,232.5 281,239.5C 279,240.833 277,240.833 275,239.5C 273.927,231.895 274.427,224.562 276.5,217.5 Z"/></g>
<g><path style="opacity:1" fill="#4a2851" d="M 253.5,224.5 C 254.479,227.625 254.813,230.958 254.5,234.5C 245.833,234.5 237.167,234.5 228.5,234.5C 236.65,233.507 244.983,233.174 253.5,233.5C 253.5,230.5 253.5,227.5 253.5,224.5 Z"/></g>
</svg>
